:FULLY-SPECIFIED
:DEGREES
16
root 9.178350448608398 17.398799896240234 -20.18440055847168 90.00000933466734 -0.0 -0.0
lhipjoint -5.528973971617621e-07 -1.7075472925031877e-06 5.635377011264426e-07
lfemur -25.087209689375964 18.68407126702909 -16.876615382441543
ltibia 18.801350737720085 -8.07341593387024 6.172409936428789
lfoot -11.966892699476078 -6.729091698125984 4.074339321054128
ltoes -14.075119379259723 6.1192535623263415 4.477578748612872
rhipjoint -1.4590168159163821e-06 -1.2806604693773908e-06 -1.1362305144035093e-07
rfemur 20.849633969800408 -26.165218446079077 0.8715112206392939
rtibia 11.955476892052047 4.869947076333894 -4.20473147429108
rfoot -12.533181976014543 -2.2175114140511423 -4.009149007407765
rtoes 0.8331150987766556 0.3201446000964112 0.305251105806934
lowerback 5.461291194295258 -4.054607331428785 1.2179892148742926
upperback 0.005641616192511528 -3.4091064300949783 1.9844589562679604
thorax -2.9877678550093476 -1.0872574731695444 0.9507285016850422
lowerneck -17.91120291904359 9.561068701139453 -4.569717573629521
upperneck 20.7914407580719 -6.026447086318323 -5.088627962329723
head 9.778741707345882 -3.0131249323030196 -2.4293209162985265
lclavicle -1.1905593500282093e-07 5.336085289072462e-08 1.7916324053945998e-07
lhumerus -78.98453295827007 -35.68388960171932 -24.478537381490277
lradius 5.893208549295079e-07 7.258241424707149e-08 22.108613711204885
lwrist -9.646028984597472e-07 -12.691198402462788 1.2840370480049823e-06
lhand -27.045375405547137 -5.887965854669961 -11.361597920134964
lfingers -9.414104972780149e-07 5.958838404591767e-07 7.125023250159637
lthumb -48.90076668346297 -33.85495960238125 30.282227666425566
rclavicle -2.343282567121354e-08 -1.5207843073856516e-06 -8.563986979746117e-08
rhumerus -76.92653548964269 23.625262339048096 14.425036800628646
rradius -9.825238228679844e-07 2.000530626206625e-06 -38.40340113674618
rwrist 3.829476892013155e-09 -0.0747359232281729 -3.7181372021258377e-09
rhand 12.410930981381423 -2.9144297660133933 13.009545835714265
rfingers -4.6239122781278693e-07 1.3831930793101032e-07 -7.125021115725521
rthumb -8.213806203391622 16.532267980340762 -11.583697742697206
17
root 9.210410118103027 17.3656005859375 -19.58890151977539 90.00000933466734 -0.0 -0.0
lhipjoint -5.528973971617621e-07 -1.7075472925031877e-06 5.635377011264426e-07
lfemur -25.138958617622567 18.992199883508583 -15.764230283645755
ltibia 20.0900691227708 -8.704587738655595 6.502201778521446
lfoot -10.286512484396615 -5.267632706323771 3.50751280744876
ltoes -12.76278134628546 5.497281168579348 4.119534682792103
rhipjoint -1.4590168159163821e-06 -1.2806604693773908e-06 -1.1362305144035093e-07
rfemur 22.423804743286173 -26.027069332379106 0.9620548763196274
rtibia 13.117533687813106 5.394594397050083 -4.563310002414402
rfoot -12.390556527087275 -1.862873478192094 -3.969223563501279
rtoes 1.1262671381187201 0.43157918976602216 0.413614618310125
lowerback 5.9179913662613375 -4.284724088529331 1.1444276506264321
upperback -0.21298752311622657 -3.4547286786560787 1.9464406292437884
thorax -3.464293504815035 -0.9975573458517074 0.9199065260034192
lowerneck -17.60092108542825 9.818851139473136 -4.82553419814271
upperneck 21.64666411197483 -6.074895325648517 -5.452516535645907
head 10.050208429681685 -3.036537540117354 -2.6249776614890656
lclavicle -1.1905593500282093e-07 5.336085289072462e-08 1.7916324053945998e-07
lhumerus -77.91422182476155 -35.66478897770538 -26.088856931158332
lradius 4.5878992391362195e-07 -6.902149194236426e-07 21.238307592067276
lwrist -1.097525453929469e-06 -14.253000557135305 1.4493287954677695e-06
lhand -24.96385305787095 -5.444223405333043 -11.519085006922532
lfingers -9.414104972780149e-07 5.958838404591767e-07 7.125023250159637
lthumb -46.44868779029337 -33.28288686316308 28.97695802546862
rclavicle -2.343282567121354e-08 -1.5207843073856516e-06 -8.563986979746117e-08
rhumerus -76.96281062432463 23.14242772888343 14.670805789985923
rradius -2.180266264810998e-06 5.4150920993595116e-06 -38.49619950190456
rwrist -1.5019515481655083e-09 0.02932882896098145 1.4566556786694455e-09
rhand 13.268199976940771 -3.110709339078873 12.95980925195188
rfingers -4.6239122781278693e-07 1.3831930793101032e-07 -7.125021115725521
rthumb -7.449521695645535 16.04894330410315 -11.373333038902691
18
root 9.243749618530273 17.29880142211914 -18.93250274658203 90.00000933466734 -0.0 -0.0
lhipjoint -5.528973971617621e-07 -1.7075472925031877e-06 5.635377011264426e-07
lfemur -23.423783711363765 19.89378826904485 -13.764414073915844
ltibia 20.866543810638067 -9.088718431350758 6.694380249877156
lfoot -8.33101224954904 -2.844299518049818 2.8335005620852045
ltoes -12.72131356028702 5.477781405385785 4.108007457907237
rhipjoint -1.4590168159163821e-06 -1.2806604693773908e-06 -1.1362305144035093e-07
rfemur 22.792706675453147 -25.75440305807032 0.881320919752166
rtibia 17.192687508925758 7.2972767790459505 -5.74215369560806
rfoot -12.445804219736216 -1.715526234114232 -3.9842273546736813
rtoes -3.9758979389808506 -1.5966206447922435 -1.3992943452364597
lowerback 5.807875483349215 -3.9348476482954275 1.1195940432996179
upperback 0.2430254944667526 -3.373334168090683 1.8546057476452051
thorax -2.9436015039585177 -1.12211950574523 0.8896934510141322
lowerneck -18.01226410555039 9.809157393493594 -4.910326300933363
upperneck 21.28721345407186 -6.245226583170295 -5.558991073956767
head 10.003282468762759 -3.0717832372253238 -2.6429442606573725
lclavicle -1.1905593500282093e-07 5.336085289072462e-08 1.7916324053945998e-07
lhumerus -77.74724419012226 -34.60862658106255 -26.75929122461386
lradius 1.4934652255602514e-06 7.434738037312795e-08 20.610519292242017
lwrist -1.1697782927393378e-06 -15.082391281823599 1.5381059644030263e-06
lhand -25.930971985851613 -5.31669096692421 -10.789191355421105
lfingers -9.414104972780149e-07 5.958838404591767e-07 7.125023250159637
lthumb -47.49674275239139 -33.39447507872816 30.226807511500084
rclavicle -2.343282567121354e-08 -1.5207843073856516e-06 -8.563986979746117e-08
rhumerus -77.0037029668855 22.901938475754573 15.233113066238271
rradius 7.348440683251581e-08 4.311189862293645e-06 -39.179604324593946
rwrist 2.8479241227046907e-09 -0.05558407279545716 -2.764477698589141e-09
rhand 13.102939281104081 -3.061742432258582 12.92399003239704
rfingers -4.6239122781278693e-07 1.3831930793101032e-07 -7.125021115725521
rthumb -7.583587209995484 16.160287340405407 -11.449384633989844
19
root 9.293880462646484 17.352399826049805 -18.228300094604492 90.00000933466734 -0.0 -0.0
lhipjoint -5.528973971617621e-07 -1.7075472925031877e-06 5.635377011264426e-07
lfemur -21.277456528842496 21.503163545060154 -12.879758581105683
ltibia 20.75907249159521 -9.035384045443069 6.668078472043907
lfoot -4.691069971499961 -1.1302173353365148 1.6380381648672604
ltoes -4.839763189731138 1.9581285770175612 1.6902122723896953
rhipjoint -1.4590168159163821e-06 -1.2806604693773908e-06 -1.1362305144035093e-07
rfemur 20.89962412433573 -24.567309350132934 1.3789054835120311
rtibia 22.654564391942344 9.983614085274061 -7.117912169460007
rfoot -10.117934877944238 -1.8536548572466924 -3.3268826918756607
rtoes -5.901003405135047 -2.409124687253034 -2.0409066277767076
lowerback 5.468223836302821 -2.656568140174021 1.2939221354246169
upperback 0.012153243572056632 -2.8015495774781196 1.9794607518993919
thorax -3.0188793666787554 -1.240446129813354 0.9649219549454461
lowerneck -17.67972097788269 10.04103292430542 -5.0529052191969095
upperneck 21.78513424456579 -6.540841439316678 -5.82525319214502
head 10.141904573062753 -3.1895412480450442 -2.7596854270644076
lclavicle -1.1905593500282093e-07 5.336085289072462e-08 1.7916324053945998e-07
lhumerus -76.68545030250876 -33.98140347939111 -28.18467657231465
lradius 6.677699231476167e-07 3.2129678414444985e-07 19.74371535260133
lwrist -1.3094387388017716e-06 -16.646793177248952 1.707639910255512e-06
lhand -25.96082162007186 -5.393156215342972 -10.926072615256393
lfingers -9.414104972780149e-07 5.958838404591767e-07 7.125023250159637
lthumb -47.550400718511014 -33.435910421328046 30.10879208792602
rclavicle -2.343282567121354e-08 -1.5207843073856516e-06 -8.563986979746117e-08
rhumerus -76.76690030836116 24.17758900137576 16.63167455352113
rradius 6.648022366298742e-07 2.6067557476015495e-06 -39.47128755309934
rwrist 1.6560901733392717e-08 -0.3226581097109759 -1.6115535022456743e-08
rhand 13.296660521438568 -3.156846840035486 13.117047890608388
rfingers -4.6239122781278693e-07 1.3831930793101032e-07 -7.125021115725521
rthumb -7.469073112144696 15.969569675758432 -11.241045081284238
